<svg id="visual" viewBox="0 0 500 500" width="500" height="500" xmlns="http://www.w3.org/2000/svg" xmlns:xlink="http://www.w3.org/1999/xlink" version="1.1"><rect x="0" y="0" width="500" height="500" fill="#FFFFFF"></rect><g transform="translate(271.4056620824583 244.00187374409438)"><path d="M76.8 -109.7C92.5 -94.3 93.3 -62.5 92.9 -36.6C92.5 -10.7 90.8 9.1 90.7 35.7C90.6 62.2 92 95.4 77.2 110.4C62.3 125.4 31.2 122.2 -2.8 126.1C-36.7 129.9 -73.5 140.8 -93.6 127.5C-113.7 114.2 -117.3 76.7 -124.3 43.2C-131.2 9.7 -141.7 -19.9 -131.6 -40.2C-121.4 -60.5 -90.7 -71.5 -65.3 -83.8C-40 -96 -20 -109.5 5.3 -116.8C30.6 -124.1 61.1 -125.1 76.8 -109.7" fill="#0434b4"></path></g></svg>