<svg id="visual" viewBox="0 0 500 500" width="500" height="500" xmlns="http://www.w3.org/2000/svg" xmlns:xlink="http://www.w3.org/1999/xlink" version="1.1"><rect x="0" y="0" width="500" height="500" fill="#FFFFFF"></rect><g transform="translate(239.06404809274363 253.16257169678778)"><path d="M77 -94.3C103.5 -86.8 131.2 -69.2 141.3 -44.4C151.5 -19.6 144.2 12.5 135 44.8C125.8 77.1 114.6 109.8 91.8 118C69 126.2 34.5 110 7.2 100.1C-20.2 90.3 -40.4 86.8 -62.4 78.3C-84.4 69.9 -108.3 56.4 -118.2 36C-128.1 15.7 -124 -11.6 -120.3 -44.1C-116.6 -76.5 -113.4 -114.1 -93.4 -123.8C-73.5 -133.5 -36.7 -115.2 -5.7 -107.3C25.3 -99.5 50.5 -101.9 77 -94.3" fill="#0434b4"></path></g></svg>