<svg width="352" height="281" viewBox="0 0 352 281" fill="none" xmlns="http://www.w3.org/2000/svg">
<path d="M210.5 119.5V164V177H252H292.75V191H339.75L339.987 81.513C339.994 78.1942 337.306 75.5 333.987 75.5H305V32.25C305 28.9363 302.314 26.25 299 26.25H248.5V11C248.5 7.68629 245.814 5 242.5 5H100C96.6863 5 94 7.68629 94 11V65H11C7.68629 65 5 67.6863 5 71V162.5H48.25H65.75H91.25H134V113.5H204.5C207.814 113.5 210.5 116.186 210.5 119.5Z" fill="#279AF1"/>
<path d="M174 252.5V170C174 166.686 176.686 164 180 164H210.5M210.5 164V119.5C210.5 116.186 207.814 113.5 204.5 113.5H134M210.5 164V177M134 113.5V162.5M134 113.5H64M134 162.5V223M134 162.5H91.25M5 162.5V71C5 67.6863 7.68629 65 11 65H94M5 162.5V223M5 162.5H48.25M122 85.5V71C122 67.6863 119.314 65 116 65H94M94 65V11C94 7.68629 96.6863 5 100 5H242.5C245.814 5 248.5 7.68629 248.5 11V26.25M248.5 46.5V26.25M248.5 26.25H299C302.314 26.25 305 28.9363 305 32.25V75.5M274 75.5H333.987C337.306 75.5 339.994 78.1942 339.987 81.513L339.75 191M339.75 191H292.75M339.75 191V223M292.75 191V177M292.75 191V223M292.75 177L292.53 133.47C292.513 130.168 289.832 127.5 286.53 127.5H252M292.75 177H252M210.5 177V223M210.5 177H252M64 92.5V133.5M156.5 38.5V50.5C156.5 53.8137 159.186 56.5 162.5 56.5H204.5C207.814 56.5 210.5 53.8137 210.5 50.5V38.5M252 177V223M48.25 162.5H65.75H91.25M48.25 162.5V223M91.25 162.5V223M347 275.5H288C284.686 275.5 282 272.814 282 269.5V258.5C282 255.186 279.314 252.5 276 252.5H92.5C89.1863 252.5 86.5 255.186 86.5 258.5V269.5C86.5 272.814 83.8137 275.5 80.5 275.5H5" stroke="#0031B0" stroke-width="10"/>
<circle cx="64" cy="92.25" r="5" fill="#0031B0"/>
<circle cx="64" cy="92.25" r="5" fill="#0031B0"/>
<circle cx="64" cy="133.5" r="5" fill="#0031B0"/>
<circle cx="64" cy="133.5" r="5" fill="#0031B0"/>
<circle cx="122" cy="85.5" r="5" fill="#0031B0"/>
<circle cx="122" cy="85.5" r="5" fill="#0031B0"/>
<circle cx="156.5" cy="38.25" r="5" fill="#0031B0"/>
<circle cx="156.5" cy="38.25" r="5" fill="#0031B0"/>
<circle cx="210.5" cy="38" r="5" fill="#0031B0"/>
<circle cx="210.5" cy="38" r="5" fill="#0031B0"/>
<circle cx="248.5" cy="46.5" r="5" fill="#0031B0"/>
<circle cx="248.5" cy="46.5" r="5" fill="#0031B0"/>
<circle cx="273.75" cy="75.5" r="5" fill="#0031B0"/>
<circle cx="273.75" cy="75.5" r="5" fill="#0031B0"/>
<circle cx="251.75" cy="127.5" r="5" fill="#0031B0"/>
<circle cx="251.75" cy="127.5" r="5" fill="#0031B0"/>
<circle cx="5" cy="223.25" r="5" fill="#0031B0"/>
<circle cx="5" cy="223.25" r="5" fill="#0031B0"/>
<circle cx="48.25" cy="223" r="5" fill="#0031B0"/>
<circle cx="48.25" cy="223" r="5" fill="#0031B0"/>
<circle cx="91.25" cy="223" r="5" fill="#0031B0"/>
<circle cx="91.25" cy="223" r="5" fill="#0031B0"/>
<circle cx="134" cy="223" r="5" fill="#0031B0"/>
<circle cx="134" cy="223" r="5" fill="#0031B0"/>
<circle cx="210.5" cy="223.25" r="5" fill="#0031B0"/>
<circle cx="210.5" cy="223.25" r="5" fill="#0031B0"/>
<circle cx="252" cy="223" r="5" fill="#0031B0"/>
<circle cx="252" cy="223" r="5" fill="#0031B0"/>
<circle cx="292.75" cy="223" r="5" fill="#0031B0"/>
<circle cx="292.75" cy="223" r="5" fill="#0031B0"/>
<circle cx="339.75" cy="223" r="5" fill="#0031B0"/>
<circle cx="339.75" cy="223" r="5" fill="#0031B0"/>
<circle cx="347" cy="275.5" r="5" fill="#0031B0"/>
<circle cx="347" cy="275.5" r="5" fill="#0031B0"/>
<circle cx="5" cy="275.5" r="5" fill="#0031B0"/>
<circle cx="5" cy="275.5" r="5" fill="#0031B0"/>
</svg>
