<svg id="visual" viewBox="0 0 960 300" width="960" height="300" xmlns="http://www.w3.org/2000/svg" xmlns:xlink="http://www.w3.org/1999/xlink" version="1.1"><rect x="0" y="0" width="960" height="300" fill="#FFFFFF"></rect><path d="M0 196L8.8 204C17.7 212 35.3 228 53.2 227.7C71 227.3 89 210.7 106.8 210.3C124.7 210 142.3 226 160 235.2C177.7 244.3 195.3 246.7 213.2 243.3C231 240 249 231 266.8 226.8C284.7 222.7 302.3 223.3 320 222.2C337.7 221 355.3 218 373.2 216.5C391 215 409 215 426.8 216.5C444.7 218 462.3 221 480 222.7C497.7 224.3 515.3 224.7 533.2 228.2C551 231.7 569 238.3 586.8 233.8C604.7 229.3 622.3 213.7 640 212.3C657.7 211 675.3 224 693.2 229.3C711 234.7 729 232.3 746.8 234.5C764.7 236.7 782.3 243.3 800 244C817.7 244.7 835.3 239.3 853.2 241C871 242.7 889 251.3 906.8 243.8C924.7 236.3 942.3 212.7 951.2 200.8L960 189L960 0L951.2 0C942.3 0 924.7 0 906.8 0C889 0 871 0 853.2 0C835.3 0 817.7 0 800 0C782.3 0 764.7 0 746.8 0C729 0 711 0 693.2 0C675.3 0 657.7 0 640 0C622.3 0 604.7 0 586.8 0C569 0 551 0 533.2 0C515.3 0 497.7 0 480 0C462.3 0 444.7 0 426.8 0C409 0 391 0 373.2 0C355.3 0 337.7 0 320 0C302.3 0 284.7 0 266.8 0C249 0 231 0 213.2 0C195.3 0 177.7 0 160 0C142.3 0 124.7 0 106.8 0C89 0 71 0 53.2 0C35.3 0 17.7 0 8.8 0L0 0Z" fill="#ffffff"></path><path d="M0 233L8.8 223.3C17.7 213.7 35.3 194.3 53.2 193.3C71 192.3 89 209.7 106.8 218.8C124.7 228 142.3 229 160 224.2C177.7 219.3 195.3 208.7 213.2 204C231 199.3 249 200.7 266.8 202.7C284.7 204.7 302.3 207.3 320 213C337.7 218.7 355.3 227.3 373.2 231.2C391 235 409 234 426.8 230.5C444.7 227 462.3 221 480 221.5C497.7 222 515.3 229 533.2 230.5C551 232 569 228 586.8 222C604.7 216 622.3 208 640 201.2C657.7 194.3 675.3 188.7 693.2 188C711 187.3 729 191.7 746.8 195.8C764.7 200 782.3 204 800 204.7C817.7 205.3 835.3 202.7 853.2 200.2C871 197.7 889 195.3 906.8 195.7C924.7 196 942.3 199 951.2 200.5L960 202L960 0L951.2 0C942.3 0 924.7 0 906.8 0C889 0 871 0 853.2 0C835.3 0 817.7 0 800 0C782.3 0 764.7 0 746.8 0C729 0 711 0 693.2 0C675.3 0 657.7 0 640 0C622.3 0 604.7 0 586.8 0C569 0 551 0 533.2 0C515.3 0 497.7 0 480 0C462.3 0 444.7 0 426.8 0C409 0 391 0 373.2 0C355.3 0 337.7 0 320 0C302.3 0 284.7 0 266.8 0C249 0 231 0 213.2 0C195.3 0 177.7 0 160 0C142.3 0 124.7 0 106.8 0C89 0 71 0 53.2 0C35.3 0 17.7 0 8.8 0L0 0Z" fill="#f0f5fe"></path><path d="M0 194L8.8 191.7C17.7 189.3 35.3 184.7 53.2 186.3C71 188 89 196 106.8 192.5C124.7 189 142.3 174 160 169C177.7 164 195.3 169 213.2 170.5C231 172 249 170 266.8 172.8C284.7 175.7 302.3 183.3 320 184.2C337.7 185 355.3 179 373.2 177.2C391 175.3 409 177.7 426.8 184.5C444.7 191.3 462.3 202.7 480 205C497.7 207.3 515.3 200.7 533.2 191.3C551 182 569 170 586.8 165C604.7 160 622.3 162 640 166.3C657.7 170.7 675.3 177.3 693.2 183C711 188.7 729 193.3 746.8 189.8C764.7 186.3 782.3 174.7 800 177.2C817.7 179.7 835.3 196.3 853.2 203.7C871 211 889 209 906.8 209.3C924.7 209.7 942.3 212.3 951.2 213.7L960 215L960 0L951.2 0C942.3 0 924.7 0 906.8 0C889 0 871 0 853.2 0C835.3 0 817.7 0 800 0C782.3 0 764.7 0 746.8 0C729 0 711 0 693.2 0C675.3 0 657.7 0 640 0C622.3 0 604.7 0 586.8 0C569 0 551 0 533.2 0C515.3 0 497.7 0 480 0C462.3 0 444.7 0 426.8 0C409 0 391 0 373.2 0C355.3 0 337.7 0 320 0C302.3 0 284.7 0 266.8 0C249 0 231 0 213.2 0C195.3 0 177.7 0 160 0C142.3 0 124.7 0 106.8 0C89 0 71 0 53.2 0C35.3 0 17.7 0 8.8 0L0 0Z" fill="#e2ecfd"></path><path d="M0 145L8.8 149.2C17.7 153.3 35.3 161.7 53.2 161.7C71 161.7 89 153.3 106.8 157.2C124.7 161 142.3 177 160 181.8C177.7 186.7 195.3 180.3 213.2 180C231 179.7 249 185.3 266.8 180C284.7 174.7 302.3 158.3 320 150.7C337.7 143 355.3 144 373.2 147.3C391 150.7 409 156.3 426.8 165C444.7 173.7 462.3 185.3 480 182.8C497.7 180.3 515.3 163.7 533.2 154.5C551 145.3 569 143.7 586.8 147.5C604.7 151.3 622.3 160.7 640 164.8C657.7 169 675.3 168 693.2 167.2C711 166.3 729 165.7 746.8 170.5C764.7 175.3 782.3 185.7 800 187.8C817.7 190 835.3 184 853.2 182.7C871 181.3 889 184.7 906.8 179.2C924.7 173.7 942.3 159.3 951.2 152.2L960 145L960 0L951.2 0C942.3 0 924.7 0 906.8 0C889 0 871 0 853.2 0C835.3 0 817.7 0 800 0C782.3 0 764.7 0 746.8 0C729 0 711 0 693.2 0C675.3 0 657.7 0 640 0C622.3 0 604.7 0 586.8 0C569 0 551 0 533.2 0C515.3 0 497.7 0 480 0C462.3 0 444.7 0 426.8 0C409 0 391 0 373.2 0C355.3 0 337.7 0 320 0C302.3 0 284.7 0 266.8 0C249 0 231 0 213.2 0C195.3 0 177.7 0 160 0C142.3 0 124.7 0 106.8 0C89 0 71 0 53.2 0C35.3 0 17.7 0 8.8 0L0 0Z" fill="#d3e2fc"></path><path d="M0 137L8.8 137.8C17.7 138.7 35.3 140.3 53.2 141C71 141.7 89 141.3 106.8 140.5C124.7 139.7 142.3 138.3 160 138.5C177.7 138.7 195.3 140.3 213.2 140.8C231 141.3 249 140.7 266.8 145.8C284.7 151 302.3 162 320 161.5C337.7 161 355.3 149 373.2 147C391 145 409 153 426.8 158.2C444.7 163.3 462.3 165.7 480 167.8C497.7 170 515.3 172 533.2 166.2C551 160.3 569 146.7 586.8 142.7C604.7 138.7 622.3 144.3 640 146.3C657.7 148.3 675.3 146.7 693.2 144.5C711 142.3 729 139.7 746.8 140.2C764.7 140.7 782.3 144.3 800 148C817.7 151.7 835.3 155.3 853.2 158.3C871 161.3 889 163.7 906.8 164.8C924.7 166 942.3 166 951.2 166L960 166L960 0L951.2 0C942.3 0 924.7 0 906.8 0C889 0 871 0 853.2 0C835.3 0 817.7 0 800 0C782.3 0 764.7 0 746.8 0C729 0 711 0 693.2 0C675.3 0 657.7 0 640 0C622.3 0 604.7 0 586.8 0C569 0 551 0 533.2 0C515.3 0 497.7 0 480 0C462.3 0 444.7 0 426.8 0C409 0 391 0 373.2 0C355.3 0 337.7 0 320 0C302.3 0 284.7 0 266.8 0C249 0 231 0 213.2 0C195.3 0 177.7 0 160 0C142.3 0 124.7 0 106.8 0C89 0 71 0 53.2 0C35.3 0 17.7 0 8.8 0L0 0Z" fill="#c3d9fb"></path><path d="M0 145L8.8 140.2C17.7 135.3 35.3 125.7 53.2 125.5C71 125.3 89 134.7 106.8 141C124.7 147.3 142.3 150.7 160 152.2C177.7 153.7 195.3 153.3 213.2 147.8C231 142.3 249 131.7 266.8 125C284.7 118.3 302.3 115.7 320 121.3C337.7 127 355.3 141 373.2 141.3C391 141.7 409 128.3 426.8 124.3C444.7 120.3 462.3 125.7 480 132.2C497.7 138.7 515.3 146.3 533.2 142.8C551 139.3 569 124.7 586.8 124.8C604.7 125 622.3 140 640 142.7C657.7 145.3 675.3 135.7 693.2 135.8C711 136 729 146 746.8 148.3C764.7 150.7 782.3 145.3 800 145C817.7 144.7 835.3 149.3 853.2 144.3C871 139.3 889 124.7 906.8 118.3C924.7 112 942.3 114 951.2 115L960 116L960 0L951.2 0C942.3 0 924.7 0 906.8 0C889 0 871 0 853.2 0C835.3 0 817.7 0 800 0C782.3 0 764.7 0 746.8 0C729 0 711 0 693.2 0C675.3 0 657.7 0 640 0C622.3 0 604.7 0 586.8 0C569 0 551 0 533.2 0C515.3 0 497.7 0 480 0C462.3 0 444.7 0 426.8 0C409 0 391 0 373.2 0C355.3 0 337.7 0 320 0C302.3 0 284.7 0 266.8 0C249 0 231 0 213.2 0C195.3 0 177.7 0 160 0C142.3 0 124.7 0 106.8 0C89 0 71 0 53.2 0C35.3 0 17.7 0 8.8 0L0 0Z" fill="#b3d0fa"></path><path d="M0 119L8.8 114.5C17.7 110 35.3 101 53.2 102.5C71 104 89 116 106.8 122.2C124.7 128.3 142.3 128.7 160 127.7C177.7 126.7 195.3 124.3 213.2 119C231 113.7 249 105.3 266.8 104.7C284.7 104 302.3 111 320 112.5C337.7 114 355.3 110 373.2 112C391 114 409 122 426.8 125.8C444.7 129.7 462.3 129.3 480 130.5C497.7 131.7 515.3 134.3 533.2 130C551 125.7 569 114.3 586.8 107.3C604.7 100.3 622.3 97.7 640 96.2C657.7 94.7 675.3 94.3 693.2 96.2C711 98 729 102 746.8 103.8C764.7 105.7 782.3 105.3 800 110.5C817.7 115.7 835.3 126.3 853.2 127.3C871 128.3 889 119.7 906.8 119.2C924.7 118.7 942.3 126.3 951.2 130.2L960 134L960 0L951.2 0C942.3 0 924.7 0 906.8 0C889 0 871 0 853.2 0C835.3 0 817.7 0 800 0C782.3 0 764.7 0 746.8 0C729 0 711 0 693.2 0C675.3 0 657.7 0 640 0C622.3 0 604.7 0 586.8 0C569 0 551 0 533.2 0C515.3 0 497.7 0 480 0C462.3 0 444.7 0 426.8 0C409 0 391 0 373.2 0C355.3 0 337.7 0 320 0C302.3 0 284.7 0 266.8 0C249 0 231 0 213.2 0C195.3 0 177.7 0 160 0C142.3 0 124.7 0 106.8 0C89 0 71 0 53.2 0C35.3 0 17.7 0 8.8 0L0 0Z" fill="#a3c6f8"></path><path d="M0 82L8.8 82.7C17.7 83.3 35.3 84.7 53.2 86.2C71 87.7 89 89.3 106.8 87.7C124.7 86 142.3 81 160 81.2C177.7 81.3 195.3 86.7 213.2 91.8C231 97 249 102 266.8 99.7C284.7 97.3 302.3 87.7 320 86.5C337.7 85.3 355.3 92.7 373.2 94.2C391 95.7 409 91.3 426.8 91.2C444.7 91 462.3 95 480 97.7C497.7 100.3 515.3 101.7 533.2 100.7C551 99.7 569 96.3 586.8 92.2C604.7 88 622.3 83 640 83C657.7 83 675.3 88 693.2 92.2C711 96.3 729 99.7 746.8 100.2C764.7 100.7 782.3 98.3 800 96.5C817.7 94.7 835.3 93.3 853.2 92.7C871 92 889 92 906.8 90.2C924.7 88.3 942.3 84.7 951.2 82.8L960 81L960 0L951.2 0C942.3 0 924.7 0 906.8 0C889 0 871 0 853.2 0C835.3 0 817.7 0 800 0C782.3 0 764.7 0 746.8 0C729 0 711 0 693.2 0C675.3 0 657.7 0 640 0C622.3 0 604.7 0 586.8 0C569 0 551 0 533.2 0C515.3 0 497.7 0 480 0C462.3 0 444.7 0 426.8 0C409 0 391 0 373.2 0C355.3 0 337.7 0 320 0C302.3 0 284.7 0 266.8 0C249 0 231 0 213.2 0C195.3 0 177.7 0 160 0C142.3 0 124.7 0 106.8 0C89 0 71 0 53.2 0C35.3 0 17.7 0 8.8 0L0 0Z" fill="#91bdf7"></path><path d="M0 67L8.8 70.8C17.7 74.7 35.3 82.3 53.2 84.3C71 86.3 89 82.7 106.8 83.2C124.7 83.7 142.3 88.3 160 90.2C177.7 92 195.3 91 213.2 87.7C231 84.3 249 78.7 266.8 78.3C284.7 78 302.3 83 320 85.2C337.7 87.3 355.3 86.7 373.2 82.2C391 77.7 409 69.3 426.8 67.5C444.7 65.7 462.3 70.3 480 76.2C497.7 82 515.3 89 533.2 88.5C551 88 569 80 586.8 76.2C604.7 72.3 622.3 72.7 640 74.5C657.7 76.3 675.3 79.7 693.2 78.2C711 76.7 729 70.3 746.8 67.2C764.7 64 782.3 64 800 68.5C817.7 73 835.3 82 853.2 87C871 92 889 93 906.8 88.5C924.7 84 942.3 74 951.2 69L960 64L960 0L951.2 0C942.3 0 924.7 0 906.8 0C889 0 871 0 853.2 0C835.3 0 817.7 0 800 0C782.3 0 764.7 0 746.8 0C729 0 711 0 693.2 0C675.3 0 657.7 0 640 0C622.3 0 604.7 0 586.8 0C569 0 551 0 533.2 0C515.3 0 497.7 0 480 0C462.3 0 444.7 0 426.8 0C409 0 391 0 373.2 0C355.3 0 337.7 0 320 0C302.3 0 284.7 0 266.8 0C249 0 231 0 213.2 0C195.3 0 177.7 0 160 0C142.3 0 124.7 0 106.8 0C89 0 71 0 53.2 0C35.3 0 17.7 0 8.8 0L0 0Z" fill="#7eb4f6"></path><path d="M0 68L8.8 67.2C17.7 66.3 35.3 64.7 53.2 61.5C71 58.3 89 53.7 106.8 51C124.7 48.3 142.3 47.7 160 48.2C177.7 48.7 195.3 50.3 213.2 51.3C231 52.3 249 52.7 266.8 52.3C284.7 52 302.3 51 320 52.8C337.7 54.7 355.3 59.3 373.2 62.5C391 65.7 409 67.3 426.8 68C444.7 68.7 462.3 68.3 480 64C497.7 59.7 515.3 51.3 533.2 49.3C551 47.3 569 51.7 586.8 55.8C604.7 60 622.3 64 640 64.7C657.7 65.3 675.3 62.7 693.2 61.8C711 61 729 62 746.8 62.7C764.7 63.3 782.3 63.7 800 62.8C817.7 62 835.3 60 853.2 56.7C871 53.3 889 48.7 906.8 50.5C924.7 52.3 942.3 60.7 951.2 64.8L960 69L960 0L951.2 0C942.3 0 924.7 0 906.8 0C889 0 871 0 853.2 0C835.3 0 817.7 0 800 0C782.3 0 764.7 0 746.8 0C729 0 711 0 693.2 0C675.3 0 657.7 0 640 0C622.3 0 604.7 0 586.8 0C569 0 551 0 533.2 0C515.3 0 497.7 0 480 0C462.3 0 444.7 0 426.8 0C409 0 391 0 373.2 0C355.3 0 337.7 0 320 0C302.3 0 284.7 0 266.8 0C249 0 231 0 213.2 0C195.3 0 177.7 0 160 0C142.3 0 124.7 0 106.8 0C89 0 71 0 53.2 0C35.3 0 17.7 0 8.8 0L0 0Z" fill="#68abf4"></path><path d="M0 42L8.8 40.2C17.7 38.3 35.3 34.7 53.2 34.7C71 34.7 89 38.3 106.8 40.2C124.7 42 142.3 42 160 40.3C177.7 38.7 195.3 35.3 213.2 33C231 30.7 249 29.3 266.8 29C284.7 28.7 302.3 29.3 320 30.8C337.7 32.3 355.3 34.7 373.2 38.5C391 42.3 409 47.7 426.8 49.5C444.7 51.3 462.3 49.7 480 48.7C497.7 47.7 515.3 47.3 533.2 47.8C551 48.3 569 49.7 586.8 50.5C604.7 51.3 622.3 51.7 640 48C657.7 44.3 675.3 36.7 693.2 34.8C711 33 729 37 746.8 37C764.7 37 782.3 33 800 32.2C817.7 31.3 835.3 33.7 853.2 34.2C871 34.7 889 33.3 906.8 32.2C924.7 31 942.3 30 951.2 29.5L960 29L960 0L951.2 0C942.3 0 924.7 0 906.8 0C889 0 871 0 853.2 0C835.3 0 817.7 0 800 0C782.3 0 764.7 0 746.8 0C729 0 711 0 693.2 0C675.3 0 657.7 0 640 0C622.3 0 604.7 0 586.8 0C569 0 551 0 533.2 0C515.3 0 497.7 0 480 0C462.3 0 444.7 0 426.8 0C409 0 391 0 373.2 0C355.3 0 337.7 0 320 0C302.3 0 284.7 0 266.8 0C249 0 231 0 213.2 0C195.3 0 177.7 0 160 0C142.3 0 124.7 0 106.8 0C89 0 71 0 53.2 0C35.3 0 17.7 0 8.8 0L0 0Z" fill="#4ea3f3"></path><path d="M0 17L8.8 18.3C17.7 19.7 35.3 22.3 53.2 23.2C71 24 89 23 106.8 23.2C124.7 23.3 142.3 24.7 160 25C177.7 25.3 195.3 24.7 213.2 25.8C231 27 249 30 266.8 28.7C284.7 27.3 302.3 21.7 320 19.8C337.7 18 355.3 20 373.2 21.3C391 22.7 409 23.3 426.8 24.5C444.7 25.7 462.3 27.3 480 27C497.7 26.7 515.3 24.3 533.2 24.3C551 24.3 569 26.7 586.8 28.2C604.7 29.7 622.3 30.3 640 28.5C657.7 26.7 675.3 22.3 693.2 20.8C711 19.3 729 20.7 746.8 21.7C764.7 22.7 782.3 23.3 800 21.7C817.7 20 835.3 16 853.2 17.2C871 18.3 889 24.7 906.8 27.5C924.7 30.3 942.3 29.7 951.2 29.3L960 29L960 0L951.2 0C942.3 0 924.7 0 906.8 0C889 0 871 0 853.2 0C835.3 0 817.7 0 800 0C782.3 0 764.7 0 746.8 0C729 0 711 0 693.2 0C675.3 0 657.7 0 640 0C622.3 0 604.7 0 586.8 0C569 0 551 0 533.2 0C515.3 0 497.7 0 480 0C462.3 0 444.7 0 426.8 0C409 0 391 0 373.2 0C355.3 0 337.7 0 320 0C302.3 0 284.7 0 266.8 0C249 0 231 0 213.2 0C195.3 0 177.7 0 160 0C142.3 0 124.7 0 106.8 0C89 0 71 0 53.2 0C35.3 0 17.7 0 8.8 0L0 0Z" fill="#279af1"></path></svg>