<svg id="visual" viewBox="0 0 960 100" width="960" height="100" xmlns="http://www.w3.org/2000/svg" xmlns:xlink="http://www.w3.org/1999/xlink" version="1.1"><rect x="0" y="0" width="960" height="100" fill="#FFFFFF"></rect><path d="M0 64L7 65C14 66 28 68 41.8 67.3C55.7 66.7 69.3 63.3 83.2 61.3C97 59.3 111 58.7 125 60.8C139 63 153 68 167 68.8C181 69.7 195 66.3 208.8 65.8C222.7 65.3 236.3 67.7 250.2 69.7C264 71.7 278 73.3 292 72.8C306 72.3 320 69.7 334 68.3C348 67 362 67 375.8 66.8C389.7 66.7 403.3 66.3 417.2 68.5C431 70.7 445 75.3 459 76.2C473 77 487 74 501 70.2C515 66.3 529 61.7 542.8 61.5C556.7 61.3 570.3 65.7 584.2 66C598 66.3 612 62.7 626 60.7C640 58.7 654 58.3 668 59.2C682 60 696 62 709.8 62.3C723.7 62.7 737.3 61.3 751.2 61.2C765 61 779 62 793 63.5C807 65 821 67 835 67.5C849 68 863 67 876.8 64.8C890.7 62.7 904.3 59.3 918.2 60C932 60.7 946 65.3 953 67.7L960 70L960 0L953 0C946 0 932 0 918.2 0C904.3 0 890.7 0 876.8 0C863 0 849 0 835 0C821 0 807 0 793 0C779 0 765 0 751.2 0C737.3 0 723.7 0 709.8 0C696 0 682 0 668 0C654 0 640 0 626 0C612 0 598 0 584.2 0C570.3 0 556.7 0 542.8 0C529 0 515 0 501 0C487 0 473 0 459 0C445 0 431 0 417.2 0C403.3 0 389.7 0 375.8 0C362 0 348 0 334 0C320 0 306 0 292 0C278 0 264 0 250.2 0C236.3 0 222.7 0 208.8 0C195 0 181 0 167 0C153 0 139 0 125 0C111 0 97 0 83.2 0C69.3 0 55.7 0 41.8 0C28 0 14 0 7 0L0 0Z" fill="#ffffff"></path><path d="M0 53L7 54.8C14 56.7 28 60.3 41.8 59.5C55.7 58.7 69.3 53.3 83.2 53.7C97 54 111 60 125 61.7C139 63.3 153 60.7 167 58.3C181 56 195 54 208.8 55.2C222.7 56.3 236.3 60.7 250.2 61C264 61.3 278 57.7 292 57.8C306 58 320 62 334 62.2C348 62.3 362 58.7 375.8 57.5C389.7 56.3 403.3 57.7 417.2 57C431 56.3 445 53.7 459 54.5C473 55.3 487 59.7 501 60.8C515 62 529 60 542.8 59.5C556.7 59 570.3 60 584.2 61.8C598 63.7 612 66.3 626 64.3C640 62.3 654 55.7 668 55C682 54.3 696 59.7 709.8 59.5C723.7 59.3 737.3 53.7 751.2 53C765 52.3 779 56.7 793 56.8C807 57 821 53 835 53C849 53 863 57 876.8 58.8C890.7 60.7 904.3 60.3 918.2 61.5C932 62.7 946 65.3 953 66.7L960 68L960 0L953 0C946 0 932 0 918.2 0C904.3 0 890.7 0 876.8 0C863 0 849 0 835 0C821 0 807 0 793 0C779 0 765 0 751.2 0C737.3 0 723.7 0 709.8 0C696 0 682 0 668 0C654 0 640 0 626 0C612 0 598 0 584.2 0C570.3 0 556.7 0 542.8 0C529 0 515 0 501 0C487 0 473 0 459 0C445 0 431 0 417.2 0C403.3 0 389.7 0 375.8 0C362 0 348 0 334 0C320 0 306 0 292 0C278 0 264 0 250.2 0C236.3 0 222.7 0 208.8 0C195 0 181 0 167 0C153 0 139 0 125 0C111 0 97 0 83.2 0C69.3 0 55.7 0 41.8 0C28 0 14 0 7 0L0 0Z" fill="#e4edfd"></path><path d="M0 43L7 44.3C14 45.7 28 48.3 41.8 49.2C55.7 50 69.3 49 83.2 49.8C97 50.7 111 53.3 125 53.7C139 54 153 52 167 51.2C181 50.3 195 50.7 208.8 52C222.7 53.3 236.3 55.7 250.2 53.7C264 51.7 278 45.3 292 42.2C306 39 320 39 334 41.7C348 44.3 362 49.7 375.8 52.3C389.7 55 403.3 55 417.2 53C431 51 445 47 459 47.7C473 48.3 487 53.7 501 53.2C515 52.7 529 46.3 542.8 45.3C556.7 44.3 570.3 48.7 584.2 51.5C598 54.3 612 55.7 626 56.2C640 56.7 654 56.3 668 54C682 51.7 696 47.3 709.8 46.8C723.7 46.3 737.3 49.7 751.2 49.2C765 48.7 779 44.3 793 42.8C807 41.3 821 42.7 835 44.7C849 46.7 863 49.3 876.8 50.8C890.7 52.3 904.3 52.7 918.2 52.3C932 52 946 51 953 50.5L960 50L960 0L953 0C946 0 932 0 918.2 0C904.3 0 890.7 0 876.8 0C863 0 849 0 835 0C821 0 807 0 793 0C779 0 765 0 751.2 0C737.3 0 723.7 0 709.8 0C696 0 682 0 668 0C654 0 640 0 626 0C612 0 598 0 584.2 0C570.3 0 556.7 0 542.8 0C529 0 515 0 501 0C487 0 473 0 459 0C445 0 431 0 417.2 0C403.3 0 389.7 0 375.8 0C362 0 348 0 334 0C320 0 306 0 292 0C278 0 264 0 250.2 0C236.3 0 222.7 0 208.8 0C195 0 181 0 167 0C153 0 139 0 125 0C111 0 97 0 83.2 0C69.3 0 55.7 0 41.8 0C28 0 14 0 7 0L0 0Z" fill="#c8dcfb"></path><path d="M0 41L7 40.8C14 40.7 28 40.3 41.8 40.2C55.7 40 69.3 40 83.2 39C97 38 111 36 125 35.8C139 35.7 153 37.3 167 37.8C181 38.3 195 37.7 208.8 38.7C222.7 39.7 236.3 42.3 250.2 43.7C264 45 278 45 292 44.7C306 44.3 320 43.7 334 42.8C348 42 362 41 375.8 40.8C389.7 40.7 403.3 41.3 417.2 40.5C431 39.7 445 37.3 459 37.5C473 37.7 487 40.3 501 41.3C515 42.3 529 41.7 542.8 40.8C556.7 40 570.3 39 584.2 38.2C598 37.3 612 36.7 626 37.2C640 37.7 654 39.3 668 41C682 42.7 696 44.3 709.8 45C723.7 45.7 737.3 45.3 751.2 45.2C765 45 779 45 793 44.5C807 44 821 43 835 43.5C849 44 863 46 876.8 47C890.7 48 904.3 48 918.2 46.5C932 45 946 42 953 40.5L960 39L960 0L953 0C946 0 932 0 918.2 0C904.3 0 890.7 0 876.8 0C863 0 849 0 835 0C821 0 807 0 793 0C779 0 765 0 751.2 0C737.3 0 723.7 0 709.8 0C696 0 682 0 668 0C654 0 640 0 626 0C612 0 598 0 584.2 0C570.3 0 556.7 0 542.8 0C529 0 515 0 501 0C487 0 473 0 459 0C445 0 431 0 417.2 0C403.3 0 389.7 0 375.8 0C362 0 348 0 334 0C320 0 306 0 292 0C278 0 264 0 250.2 0C236.3 0 222.7 0 208.8 0C195 0 181 0 167 0C153 0 139 0 125 0C111 0 97 0 83.2 0C69.3 0 55.7 0 41.8 0C28 0 14 0 7 0L0 0Z" fill="#abcbf9"></path><path d="M0 33L7 32.7C14 32.3 28 31.7 41.8 31.5C55.7 31.3 69.3 31.7 83.2 32.7C97 33.7 111 35.3 125 34.2C139 33 153 29 167 27.3C181 25.7 195 26.3 208.8 26.3C222.7 26.3 236.3 25.7 250.2 25.2C264 24.7 278 24.3 292 26.3C306 28.3 320 32.7 334 33C348 33.3 362 29.7 375.8 28.5C389.7 27.3 403.3 28.7 417.2 30.2C431 31.7 445 33.3 459 33.7C473 34 487 33 501 31.3C515 29.7 529 27.3 542.8 26.3C556.7 25.3 570.3 25.7 584.2 26.5C598 27.3 612 28.7 626 28.3C640 28 654 26 668 25.3C682 24.7 696 25.3 709.8 25.5C723.7 25.7 737.3 25.3 751.2 25C765 24.7 779 24.3 793 26.2C807 28 821 32 835 33.7C849 35.3 863 34.7 876.8 33.2C890.7 31.7 904.3 29.3 918.2 28.5C932 27.7 946 28.3 953 28.7L960 29L960 0L953 0C946 0 932 0 918.2 0C904.3 0 890.7 0 876.8 0C863 0 849 0 835 0C821 0 807 0 793 0C779 0 765 0 751.2 0C737.3 0 723.7 0 709.8 0C696 0 682 0 668 0C654 0 640 0 626 0C612 0 598 0 584.2 0C570.3 0 556.7 0 542.8 0C529 0 515 0 501 0C487 0 473 0 459 0C445 0 431 0 417.2 0C403.3 0 389.7 0 375.8 0C362 0 348 0 334 0C320 0 306 0 292 0C278 0 264 0 250.2 0C236.3 0 222.7 0 208.8 0C195 0 181 0 167 0C153 0 139 0 125 0C111 0 97 0 83.2 0C69.3 0 55.7 0 41.8 0C28 0 14 0 7 0L0 0Z" fill="#8bbaf7"></path><path d="M0 26L7 24.5C14 23 28 20 41.8 18.7C55.7 17.3 69.3 17.7 83.2 17.8C97 18 111 18 125 18.8C139 19.7 153 21.3 167 21.8C181 22.3 195 21.7 208.8 20.5C222.7 19.3 236.3 17.7 250.2 18.5C264 19.3 278 22.7 292 23.2C306 23.7 320 21.3 334 20.5C348 19.7 362 20.3 375.8 21.5C389.7 22.7 403.3 24.3 417.2 24.7C431 25 445 24 459 22.8C473 21.7 487 20.3 501 19.3C515 18.3 529 17.7 542.8 18.7C556.7 19.7 570.3 22.3 584.2 22.5C598 22.7 612 20.3 626 19.7C640 19 654 20 668 20.7C682 21.3 696 21.7 709.8 21C723.7 20.3 737.3 18.7 751.2 18.2C765 17.7 779 18.3 793 19.3C807 20.3 821 21.7 835 22.5C849 23.3 863 23.7 876.8 23.5C890.7 23.3 904.3 22.7 918.2 22.5C932 22.3 946 22.7 953 22.8L960 23L960 0L953 0C946 0 932 0 918.2 0C904.3 0 890.7 0 876.8 0C863 0 849 0 835 0C821 0 807 0 793 0C779 0 765 0 751.2 0C737.3 0 723.7 0 709.8 0C696 0 682 0 668 0C654 0 640 0 626 0C612 0 598 0 584.2 0C570.3 0 556.7 0 542.8 0C529 0 515 0 501 0C487 0 473 0 459 0C445 0 431 0 417.2 0C403.3 0 389.7 0 375.8 0C362 0 348 0 334 0C320 0 306 0 292 0C278 0 264 0 250.2 0C236.3 0 222.7 0 208.8 0C195 0 181 0 167 0C153 0 139 0 125 0C111 0 97 0 83.2 0C69.3 0 55.7 0 41.8 0C28 0 14 0 7 0L0 0Z" fill="#64aaf4"></path><path d="M0 15L7 15C14 15 28 15 41.8 14C55.7 13 69.3 11 83.2 11.2C97 11.3 111 13.7 125 13.8C139 14 153 12 167 11.2C181 10.3 195 10.7 208.8 10.5C222.7 10.3 236.3 9.7 250.2 9C264 8.3 278 7.7 292 7.8C306 8 320 9 334 9.3C348 9.7 362 9.3 375.8 9.8C389.7 10.3 403.3 11.7 417.2 12.8C431 14 445 15 459 15.5C473 16 487 16 501 15C515 14 529 12 542.8 10.7C556.7 9.3 570.3 8.7 584.2 8.3C598 8 612 8 626 8.7C640 9.3 654 10.7 668 11.2C682 11.7 696 11.3 709.8 11.2C723.7 11 737.3 11 751.2 11.7C765 12.3 779 13.7 793 13.7C807 13.7 821 12.3 835 12C849 11.7 863 12.3 876.8 12.8C890.7 13.3 904.3 13.7 918.2 13.2C932 12.7 946 11.3 953 10.7L960 10L960 0L953 0C946 0 932 0 918.2 0C904.3 0 890.7 0 876.8 0C863 0 849 0 835 0C821 0 807 0 793 0C779 0 765 0 751.2 0C737.3 0 723.7 0 709.8 0C696 0 682 0 668 0C654 0 640 0 626 0C612 0 598 0 584.2 0C570.3 0 556.7 0 542.8 0C529 0 515 0 501 0C487 0 473 0 459 0C445 0 431 0 417.2 0C403.3 0 389.7 0 375.8 0C362 0 348 0 334 0C320 0 306 0 292 0C278 0 264 0 250.2 0C236.3 0 222.7 0 208.8 0C195 0 181 0 167 0C153 0 139 0 125 0C111 0 97 0 83.2 0C69.3 0 55.7 0 41.8 0C28 0 14 0 7 0L0 0Z" fill="#279af1"></path></svg>