<svg id="visual" viewBox="0 0 960 250" width="960" height="250" xmlns="http://www.w3.org/2000/svg" xmlns:xlink="http://www.w3.org/1999/xlink" version="1.1"><path d="M0 124L14.5 120.2C29 116.3 58 108.7 87.2 105.2C116.3 101.7 145.7 102.3 174.8 106C204 109.7 233 116.3 262 119.3C291 122.3 320 121.7 349 116.8C378 112 407 103 436.2 98.8C465.3 94.7 494.7 95.3 523.8 100.7C553 106 582 116 611 120C640 124 669 122 698 115.5C727 109 756 98 785.2 94.5C814.3 91 843.7 95 872.8 99C902 103 931 107 945.5 109L960 111L960 0L945.5 0C931 0 902 0 872.8 0C843.7 0 814.3 0 785.2 0C756 0 727 0 698 0C669 0 640 0 611 0C582 0 553 0 523.8 0C494.7 0 465.3 0 436.2 0C407 0 378 0 349 0C320 0 291 0 262 0C233 0 204 0 174.8 0C145.7 0 116.3 0 87.2 0C58 0 29 0 14.5 0L0 0Z" fill="#3c5cc4"></path><path d="M0 98L14.5 98C29 98 58 98 87.2 97.8C116.3 97.7 145.7 97.3 174.8 96.3C204 95.3 233 93.7 262 95C291 96.3 320 100.7 349 99.2C378 97.7 407 90.3 436.2 88.3C465.3 86.3 494.7 89.7 523.8 93.7C553 97.7 582 102.3 611 98.8C640 95.3 669 83.7 698 78.3C727 73 756 74 785.2 73.8C814.3 73.7 843.7 72.3 872.8 71C902 69.7 931 68.3 945.5 67.7L960 67L960 0L945.5 0C931 0 902 0 872.8 0C843.7 0 814.3 0 785.2 0C756 0 727 0 698 0C669 0 640 0 611 0C582 0 553 0 523.8 0C494.7 0 465.3 0 436.2 0C407 0 378 0 349 0C320 0 291 0 262 0C233 0 204 0 174.8 0C145.7 0 116.3 0 87.2 0C58 0 29 0 14.5 0L0 0Z" fill="#3152c1"></path><path d="M0 65L14.5 63.3C29 61.7 58 58.3 87.2 56.2C116.3 54 145.7 53 174.8 53.7C204 54.3 233 56.7 262 58.5C291 60.3 320 61.7 349 65.8C378 70 407 77 436.2 77.5C465.3 78 494.7 72 523.8 66.7C553 61.3 582 56.7 611 55.8C640 55 669 58 698 59.2C727 60.3 756 59.7 785.2 57.8C814.3 56 843.7 53 872.8 52.2C902 51.3 931 52.7 945.5 53.3L960 54L960 0L945.5 0C931 0 902 0 872.8 0C843.7 0 814.3 0 785.2 0C756 0 727 0 698 0C669 0 640 0 611 0C582 0 553 0 523.8 0C494.7 0 465.3 0 436.2 0C407 0 378 0 349 0C320 0 291 0 262 0C233 0 204 0 174.8 0C145.7 0 116.3 0 87.2 0C58 0 29 0 14.5 0L0 0Z" fill="#2548bd"></path><path d="M0 38L14.5 38.3C29 38.7 58 39.3 87.2 41.3C116.3 43.3 145.7 46.7 174.8 46C204 45.3 233 40.7 262 39.5C291 38.3 320 40.7 349 40.7C378 40.7 407 38.3 436.2 38.7C465.3 39 494.7 42 523.8 45.8C553 49.7 582 54.3 611 53.8C640 53.3 669 47.7 698 47C727 46.3 756 50.7 785.2 51.3C814.3 52 843.7 49 872.8 49.7C902 50.3 931 54.7 945.5 56.8L960 59L960 0L945.5 0C931 0 902 0 872.8 0C843.7 0 814.3 0 785.2 0C756 0 727 0 698 0C669 0 640 0 611 0C582 0 553 0 523.8 0C494.7 0 465.3 0 436.2 0C407 0 378 0 349 0C320 0 291 0 262 0C233 0 204 0 174.8 0C145.7 0 116.3 0 87.2 0C58 0 29 0 14.5 0L0 0Z" fill="#183eb9"></path><path d="M0 24L14.5 23.8C29 23.7 58 23.3 87.2 22.7C116.3 22 145.7 21 174.8 21.3C204 21.7 233 23.3 262 25.5C291 27.7 320 30.3 349 29.3C378 28.3 407 23.7 436.2 22.8C465.3 22 494.7 25 523.8 28.3C553 31.7 582 35.3 611 35.7C640 36 669 33 698 32.2C727 31.3 756 32.7 785.2 32.8C814.3 33 843.7 32 872.8 32.8C902 33.7 931 36.3 945.5 37.7L960 39L960 0L945.5 0C931 0 902 0 872.8 0C843.7 0 814.3 0 785.2 0C756 0 727 0 698 0C669 0 640 0 611 0C582 0 553 0 523.8 0C494.7 0 465.3 0 436.2 0C407 0 378 0 349 0C320 0 291 0 262 0C233 0 204 0 174.8 0C145.7 0 116.3 0 87.2 0C58 0 29 0 14.5 0L0 0Z" fill="#0434b4"></path></svg>