<svg id="visual" viewBox="0 0 960 100" width="960" height="100" xmlns="http://www.w3.org/2000/svg" xmlns:xlink="http://www.w3.org/1999/xlink" version="1.1"><rect x="0" y="0" width="960" height="100" fill="#FFFFFF"></rect><path d="M0 60L10 62.2C20 64.3 40 68.7 60 73C80 77.3 100 81.7 120 79.8C140 78 160 70 180 70C200 70 220 78 240 80.7C260 83.3 280 80.7 300 78.8C320 77 340 76 360 74.3C380 72.7 400 70.3 420 72C440 73.7 460 79.3 480 81.8C500 84.3 520 83.7 540 81.7C560 79.7 580 76.3 600 72.5C620 68.7 640 64.3 660 65.8C680 67.3 700 74.7 720 77.8C740 81 760 80 780 78C800 76 820 73 840 71C860 69 880 68 900 68.7C920 69.3 940 71.7 950 72.8L960 74L960 0L950 0C940 0 920 0 900 0C880 0 860 0 840 0C820 0 800 0 780 0C760 0 740 0 720 0C700 0 680 0 660 0C640 0 620 0 600 0C580 0 560 0 540 0C520 0 500 0 480 0C460 0 440 0 420 0C400 0 380 0 360 0C340 0 320 0 300 0C280 0 260 0 240 0C220 0 200 0 180 0C160 0 140 0 120 0C100 0 80 0 60 0C40 0 20 0 10 0L0 0Z" fill="#3c5cc4"></path><path d="M0 48L10 50.2C20 52.3 40 56.7 60 59.8C80 63 100 65 120 66.8C140 68.7 160 70.3 180 66.7C200 63 220 54 240 52.5C260 51 280 57 300 58.8C320 60.7 340 58.3 360 57.5C380 56.7 400 57.3 420 56.7C440 56 460 54 480 53.2C500 52.3 520 52.7 540 52.8C560 53 580 53 600 54.2C620 55.3 640 57.7 660 58.7C680 59.7 700 59.3 720 57.8C740 56.3 760 53.7 780 52.2C800 50.7 820 50.3 840 49.2C860 48 880 46 900 47.8C920 49.7 940 55.3 950 58.2L960 61L960 0L950 0C940 0 920 0 900 0C880 0 860 0 840 0C820 0 800 0 780 0C760 0 740 0 720 0C700 0 680 0 660 0C640 0 620 0 600 0C580 0 560 0 540 0C520 0 500 0 480 0C460 0 440 0 420 0C400 0 380 0 360 0C340 0 320 0 300 0C280 0 260 0 240 0C220 0 200 0 180 0C160 0 140 0 120 0C100 0 80 0 60 0C40 0 20 0 10 0L0 0Z" fill="#3152c1"></path><path d="M0 40L10 38.7C20 37.3 40 34.7 60 36.8C80 39 100 46 120 47.8C140 49.7 160 46.3 180 46C200 45.7 220 48.3 240 47.8C260 47.3 280 43.7 300 42.3C320 41 340 42 360 44.3C380 46.7 400 50.3 420 49.3C440 48.3 460 42.7 480 39.8C500 37 520 37 540 36.5C560 36 580 35 600 38C620 41 640 48 660 50.3C680 52.7 700 50.3 720 49C740 47.7 760 47.3 780 48.5C800 49.7 820 52.3 840 51.2C860 50 880 45 900 44.7C920 44.3 940 48.7 950 50.8L960 53L960 0L950 0C940 0 920 0 900 0C880 0 860 0 840 0C820 0 800 0 780 0C760 0 740 0 720 0C700 0 680 0 660 0C640 0 620 0 600 0C580 0 560 0 540 0C520 0 500 0 480 0C460 0 440 0 420 0C400 0 380 0 360 0C340 0 320 0 300 0C280 0 260 0 240 0C220 0 200 0 180 0C160 0 140 0 120 0C100 0 80 0 60 0C40 0 20 0 10 0L0 0Z" fill="#2548bd"></path><path d="M0 30L10 30C20 30 40 30 60 30C80 30 100 30 120 30.5C140 31 160 32 180 31C200 30 220 27 240 27.5C260 28 280 32 300 33C320 34 340 32 360 30C380 28 400 26 420 26.8C440 27.7 460 31.3 480 31.8C500 32.3 520 29.7 540 27.5C560 25.3 580 23.7 600 22.2C620 20.7 640 19.3 660 20.5C680 21.7 700 25.3 720 26.5C740 27.7 760 26.3 780 26.2C800 26 820 27 840 26.8C860 26.7 880 25.3 900 27.3C920 29.3 940 34.7 950 37.3L960 40L960 0L950 0C940 0 920 0 900 0C880 0 860 0 840 0C820 0 800 0 780 0C760 0 740 0 720 0C700 0 680 0 660 0C640 0 620 0 600 0C580 0 560 0 540 0C520 0 500 0 480 0C460 0 440 0 420 0C400 0 380 0 360 0C340 0 320 0 300 0C280 0 260 0 240 0C220 0 200 0 180 0C160 0 140 0 120 0C100 0 80 0 60 0C40 0 20 0 10 0L0 0Z" fill="#183eb9"></path><path d="M0 25L10 23.3C20 21.7 40 18.3 60 16.2C80 14 100 13 120 14.3C140 15.7 160 19.3 180 20.8C200 22.3 220 21.7 240 19.2C260 16.7 280 12.3 300 10.5C320 8.7 340 9.3 360 9.2C380 9 400 8 420 10.2C440 12.3 460 17.7 480 18.8C500 20 520 17 540 17.3C560 17.7 580 21.3 600 21.8C620 22.3 640 19.7 660 16.7C680 13.7 700 10.3 720 9.8C740 9.3 760 11.7 780 13.5C800 15.3 820 16.7 840 17.8C860 19 880 20 900 19.2C920 18.3 940 15.7 950 14.3L960 13L960 0L950 0C940 0 920 0 900 0C880 0 860 0 840 0C820 0 800 0 780 0C760 0 740 0 720 0C700 0 680 0 660 0C640 0 620 0 600 0C580 0 560 0 540 0C520 0 500 0 480 0C460 0 440 0 420 0C400 0 380 0 360 0C340 0 320 0 300 0C280 0 260 0 240 0C220 0 200 0 180 0C160 0 140 0 120 0C100 0 80 0 60 0C40 0 20 0 10 0L0 0Z" fill="#0434b4"></path></svg>