<svg id="visual" viewBox="0 0 960 300" width="960" height="300" xmlns="http://www.w3.org/2000/svg" xmlns:xlink="http://www.w3.org/1999/xlink" version="1.1"><rect x="0" y="0" width="960" height="300" fill="#FFFFFF"></rect><path d="M0 225L7 220.7C14 216.3 28 207.7 41.8 202.2C55.7 196.7 69.3 194.3 83.2 194C97 193.7 111 195.3 125 193.5C139 191.7 153 186.3 167 186.8C181 187.3 195 193.7 208.8 197.7C222.7 201.7 236.3 203.3 250.2 205.8C264 208.3 278 211.7 292 209.3C306 207 320 199 334 194C348 189 362 187 375.8 185C389.7 183 403.3 181 417.2 184C431 187 445 195 459 202.8C473 210.7 487 218.3 501 219.2C515 220 529 214 542.8 207.8C556.7 201.7 570.3 195.3 584.2 195.7C598 196 612 203 626 202.3C640 201.7 654 193.3 668 190C682 186.7 696 188.3 709.8 197.3C723.7 206.3 737.3 222.7 751.2 219.8C765 217 779 195 793 184C807 173 821 173 835 175.8C849 178.7 863 184.3 876.8 187.3C890.7 190.3 904.3 190.7 918.2 195.3C932 200 946 209 953 213.5L960 218L960 0L953 0C946 0 932 0 918.2 0C904.3 0 890.7 0 876.8 0C863 0 849 0 835 0C821 0 807 0 793 0C779 0 765 0 751.2 0C737.3 0 723.7 0 709.8 0C696 0 682 0 668 0C654 0 640 0 626 0C612 0 598 0 584.2 0C570.3 0 556.7 0 542.8 0C529 0 515 0 501 0C487 0 473 0 459 0C445 0 431 0 417.2 0C403.3 0 389.7 0 375.8 0C362 0 348 0 334 0C320 0 306 0 292 0C278 0 264 0 250.2 0C236.3 0 222.7 0 208.8 0C195 0 181 0 167 0C153 0 139 0 125 0C111 0 97 0 83.2 0C69.3 0 55.7 0 41.8 0C28 0 14 0 7 0L0 0Z" fill="#ffffff"></path><path d="M0 195L7 192C14 189 28 183 41.8 181.7C55.7 180.3 69.3 183.7 83.2 181.7C97 179.7 111 172.3 125 171.7C139 171 153 177 167 180.7C181 184.3 195 185.7 208.8 180.7C222.7 175.7 236.3 164.3 250.2 165.2C264 166 278 179 292 186.7C306 194.3 320 196.7 334 192C348 187.3 362 175.7 375.8 168.3C389.7 161 403.3 158 417.2 161.5C431 165 445 175 459 180C473 185 487 185 501 184.5C515 184 529 183 542.8 185.5C556.7 188 570.3 194 584.2 190.7C598 187.3 612 174.7 626 171.5C640 168.3 654 174.7 668 174C682 173.3 696 165.7 709.8 160.8C723.7 156 737.3 154 751.2 158.5C765 163 779 174 793 175.3C807 176.7 821 168.3 835 165C849 161.7 863 163.3 876.8 171.7C890.7 180 904.3 195 918.2 195.3C932 195.7 946 181.3 953 174.2L960 167L960 0L953 0C946 0 932 0 918.2 0C904.3 0 890.7 0 876.8 0C863 0 849 0 835 0C821 0 807 0 793 0C779 0 765 0 751.2 0C737.3 0 723.7 0 709.8 0C696 0 682 0 668 0C654 0 640 0 626 0C612 0 598 0 584.2 0C570.3 0 556.7 0 542.8 0C529 0 515 0 501 0C487 0 473 0 459 0C445 0 431 0 417.2 0C403.3 0 389.7 0 375.8 0C362 0 348 0 334 0C320 0 306 0 292 0C278 0 264 0 250.2 0C236.3 0 222.7 0 208.8 0C195 0 181 0 167 0C153 0 139 0 125 0C111 0 97 0 83.2 0C69.3 0 55.7 0 41.8 0C28 0 14 0 7 0L0 0Z" fill="#e4edfd"></path><path d="M0 179L7 171.7C14 164.3 28 149.7 41.8 146.7C55.7 143.7 69.3 152.3 83.2 158.3C97 164.3 111 167.7 125 164C139 160.3 153 149.7 167 150.2C181 150.7 195 162.3 208.8 168.7C222.7 175 236.3 176 250.2 176.5C264 177 278 177 292 177C306 177 320 177 334 170.5C348 164 362 151 375.8 144.2C389.7 137.3 403.3 136.7 417.2 139.2C431 141.7 445 147.3 459 148.7C473 150 487 147 501 143.2C515 139.3 529 134.7 542.8 135.2C556.7 135.7 570.3 141.3 584.2 141.3C598 141.3 612 135.7 626 137C640 138.3 654 146.7 668 149.8C682 153 696 151 709.8 153.5C723.7 156 737.3 163 751.2 166.7C765 170.3 779 170.7 793 166.2C807 161.7 821 152.3 835 147.5C849 142.7 863 142.3 876.8 141.5C890.7 140.7 904.3 139.3 918.2 143.3C932 147.3 946 156.7 953 161.3L960 166L960 0L953 0C946 0 932 0 918.2 0C904.3 0 890.7 0 876.8 0C863 0 849 0 835 0C821 0 807 0 793 0C779 0 765 0 751.2 0C737.3 0 723.7 0 709.8 0C696 0 682 0 668 0C654 0 640 0 626 0C612 0 598 0 584.2 0C570.3 0 556.7 0 542.8 0C529 0 515 0 501 0C487 0 473 0 459 0C445 0 431 0 417.2 0C403.3 0 389.7 0 375.8 0C362 0 348 0 334 0C320 0 306 0 292 0C278 0 264 0 250.2 0C236.3 0 222.7 0 208.8 0C195 0 181 0 167 0C153 0 139 0 125 0C111 0 97 0 83.2 0C69.3 0 55.7 0 41.8 0C28 0 14 0 7 0L0 0Z" fill="#c8dcfb"></path><path d="M0 118L7 119.2C14 120.3 28 122.7 41.8 120.8C55.7 119 69.3 113 83.2 111.7C97 110.3 111 113.7 125 115.5C139 117.3 153 117.7 167 118.8C181 120 195 122 208.8 123.2C222.7 124.3 236.3 124.7 250.2 123.5C264 122.3 278 119.7 292 115C306 110.3 320 103.7 334 106.7C348 109.7 362 122.3 375.8 130.5C389.7 138.7 403.3 142.3 417.2 141.2C431 140 445 134 459 127.3C473 120.7 487 113.3 501 113.8C515 114.3 529 122.7 542.8 124.5C556.7 126.3 570.3 121.7 584.2 120.8C598 120 612 123 626 123.8C640 124.7 654 123.3 668 123.7C682 124 696 126 709.8 129.3C723.7 132.7 737.3 137.3 751.2 135.2C765 133 779 124 793 124.7C807 125.3 821 135.7 835 140.7C849 145.7 863 145.3 876.8 139.3C890.7 133.3 904.3 121.7 918.2 113.5C932 105.3 946 100.7 953 98.3L960 96L960 0L953 0C946 0 932 0 918.2 0C904.3 0 890.7 0 876.8 0C863 0 849 0 835 0C821 0 807 0 793 0C779 0 765 0 751.2 0C737.3 0 723.7 0 709.8 0C696 0 682 0 668 0C654 0 640 0 626 0C612 0 598 0 584.2 0C570.3 0 556.7 0 542.8 0C529 0 515 0 501 0C487 0 473 0 459 0C445 0 431 0 417.2 0C403.3 0 389.7 0 375.8 0C362 0 348 0 334 0C320 0 306 0 292 0C278 0 264 0 250.2 0C236.3 0 222.7 0 208.8 0C195 0 181 0 167 0C153 0 139 0 125 0C111 0 97 0 83.2 0C69.3 0 55.7 0 41.8 0C28 0 14 0 7 0L0 0Z" fill="#abcbf9"></path><path d="M0 86L7 90C14 94 28 102 41.8 103.3C55.7 104.7 69.3 99.3 83.2 96.7C97 94 111 94 125 95C139 96 153 98 167 98.5C181 99 195 98 208.8 99.2C222.7 100.3 236.3 103.7 250.2 102.3C264 101 278 95 292 93.8C306 92.7 320 96.3 334 98.2C348 100 362 100 375.8 97.8C389.7 95.7 403.3 91.3 417.2 89.5C431 87.7 445 88.3 459 86.3C473 84.3 487 79.7 501 83C515 86.3 529 97.7 542.8 102.7C556.7 107.7 570.3 106.3 584.2 101.2C598 96 612 87 626 84.5C640 82 654 86 668 90.5C682 95 696 100 709.8 101C723.7 102 737.3 99 751.2 95.3C765 91.7 779 87.3 793 85.8C807 84.3 821 85.7 835 84.5C849 83.3 863 79.7 876.8 81C890.7 82.3 904.3 88.7 918.2 93C932 97.3 946 99.7 953 100.8L960 102L960 0L953 0C946 0 932 0 918.2 0C904.3 0 890.7 0 876.8 0C863 0 849 0 835 0C821 0 807 0 793 0C779 0 765 0 751.2 0C737.3 0 723.7 0 709.8 0C696 0 682 0 668 0C654 0 640 0 626 0C612 0 598 0 584.2 0C570.3 0 556.7 0 542.8 0C529 0 515 0 501 0C487 0 473 0 459 0C445 0 431 0 417.2 0C403.3 0 389.7 0 375.8 0C362 0 348 0 334 0C320 0 306 0 292 0C278 0 264 0 250.2 0C236.3 0 222.7 0 208.8 0C195 0 181 0 167 0C153 0 139 0 125 0C111 0 97 0 83.2 0C69.3 0 55.7 0 41.8 0C28 0 14 0 7 0L0 0Z" fill="#8bbaf7"></path><path d="M0 77L7 76.5C14 76 28 75 41.8 75.5C55.7 76 69.3 78 83.2 79C97 80 111 80 125 76.8C139 73.7 153 67.3 167 65.3C181 63.3 195 65.7 208.8 67.3C222.7 69 236.3 70 250.2 68C264 66 278 61 292 61.5C306 62 320 68 334 70.7C348 73.3 362 72.7 375.8 70.3C389.7 68 403.3 64 417.2 64.3C431 64.7 445 69.3 459 67.8C473 66.3 487 58.7 501 56.8C515 55 529 59 542.8 64.3C556.7 69.7 570.3 76.3 584.2 73.7C598 71 612 59 626 54.8C640 50.7 654 54.3 668 57.8C682 61.3 696 64.7 709.8 66.2C723.7 67.7 737.3 67.3 751.2 64C765 60.7 779 54.3 793 53.5C807 52.7 821 57.3 835 60C849 62.7 863 63.3 876.8 63.5C890.7 63.7 904.3 63.3 918.2 66.3C932 69.3 946 75.7 953 78.8L960 82L960 0L953 0C946 0 932 0 918.2 0C904.3 0 890.7 0 876.8 0C863 0 849 0 835 0C821 0 807 0 793 0C779 0 765 0 751.2 0C737.3 0 723.7 0 709.8 0C696 0 682 0 668 0C654 0 640 0 626 0C612 0 598 0 584.2 0C570.3 0 556.7 0 542.8 0C529 0 515 0 501 0C487 0 473 0 459 0C445 0 431 0 417.2 0C403.3 0 389.7 0 375.8 0C362 0 348 0 334 0C320 0 306 0 292 0C278 0 264 0 250.2 0C236.3 0 222.7 0 208.8 0C195 0 181 0 167 0C153 0 139 0 125 0C111 0 97 0 83.2 0C69.3 0 55.7 0 41.8 0C28 0 14 0 7 0L0 0Z" fill="#64aaf4"></path><path d="M0 49L7 46.8C14 44.7 28 40.3 41.8 40.2C55.7 40 69.3 44 83.2 45C97 46 111 44 125 44.2C139 44.3 153 46.7 167 45.3C181 44 195 39 208.8 38.8C222.7 38.7 236.3 43.3 250.2 43.2C264 43 278 38 292 36.7C306 35.3 320 37.7 334 36.5C348 35.3 362 30.7 375.8 30.2C389.7 29.7 403.3 33.3 417.2 33.3C431 33.3 445 29.7 459 27.3C473 25 487 24 501 26C515 28 529 33 542.8 37.3C556.7 41.7 570.3 45.3 584.2 44.7C598 44 612 39 626 34.7C640 30.3 654 26.7 668 28.5C682 30.3 696 37.7 709.8 41.7C723.7 45.7 737.3 46.3 751.2 44.8C765 43.3 779 39.7 793 38.7C807 37.7 821 39.3 835 37.5C849 35.7 863 30.3 876.8 27.5C890.7 24.7 904.3 24.3 918.2 25.5C932 26.7 946 29.3 953 30.7L960 32L960 0L953 0C946 0 932 0 918.2 0C904.3 0 890.7 0 876.8 0C863 0 849 0 835 0C821 0 807 0 793 0C779 0 765 0 751.2 0C737.3 0 723.7 0 709.8 0C696 0 682 0 668 0C654 0 640 0 626 0C612 0 598 0 584.2 0C570.3 0 556.7 0 542.8 0C529 0 515 0 501 0C487 0 473 0 459 0C445 0 431 0 417.2 0C403.3 0 389.7 0 375.8 0C362 0 348 0 334 0C320 0 306 0 292 0C278 0 264 0 250.2 0C236.3 0 222.7 0 208.8 0C195 0 181 0 167 0C153 0 139 0 125 0C111 0 97 0 83.2 0C69.3 0 55.7 0 41.8 0C28 0 14 0 7 0L0 0Z" fill="#279af1"></path></svg>