<svg id="visual" viewBox="0 0 960 50" width="960" height="50" xmlns="http://www.w3.org/2000/svg" xmlns:xlink="http://www.w3.org/1999/xlink" version="1.1"><path d="M0 23L20 25.2C40 27.3 80 31.7 120 33.2C160 34.7 200 33.3 240 28.5C280 23.7 320 15.3 360 17.3C400 19.3 440 31.7 480 38.2C520 44.7 560 45.3 600 45.7C640 46 680 46 720 40C760 34 800 22 840 17.5C880 13 920 16 940 17.5L960 19L960 51L940 51C920 51 880 51 840 51C800 51 760 51 720 51C680 51 640 51 600 51C560 51 520 51 480 51C440 51 400 51 360 51C320 51 280 51 240 51C200 51 160 51 120 51C80 51 40 51 20 51L0 51Z" fill="#002280" stroke-linecap="round" stroke-linejoin="miter"></path></svg>