<svg width="627" height="337" viewBox="0 0 627 337" fill="none" xmlns="http://www.w3.org/2000/svg">
<g clip-path="url(#clip0_808_2)">
<path fill-rule="evenodd" clip-rule="evenodd" d="M166.995 198.674C150.272 181.952 150.272 154.839 166.995 138.118L236.266 68.8458L250.276 82.8557L183.707 149.424C172.958 160.174 172.958 177.603 183.707 188.353L249.175 253.82L235.658 267.337L166.995 198.674ZM248.635 280.314L274.049 305.728C290.771 322.45 317.882 322.45 334.604 305.728L412.3 228.032H386.252L324.283 290.001C313.534 300.75 296.105 300.75 285.356 290.001L262.152 266.797L248.635 280.314ZM263.253 69.8779L249.244 55.8679L274.049 31.0635C290.771 14.3415 317.882 14.3415 334.604 31.0635L412.29 108.749H385.255L324.283 47.7767C313.534 37.0269 296.105 37.0269 285.356 47.7767L263.253 69.8779Z" fill="#FF6725"/>
<path d="M436.868 128.703C446.851 128.703 454.877 131.786 460.945 137.952C467.111 144.02 470.194 152.535 470.194 163.497V211.21H449.641V166.286C449.641 159.924 448.026 155.08 444.796 151.752C441.566 148.326 437.162 146.614 431.583 146.614C426.004 146.614 421.551 148.326 418.224 151.752C414.994 155.08 413.379 159.924 413.379 166.286V211.21H392.825V166.286C392.825 159.924 391.211 155.08 387.981 151.752C384.751 148.326 380.347 146.614 374.768 146.614C369.091 146.614 364.589 148.326 361.261 151.752C358.032 155.08 356.417 159.924 356.417 166.286V211.21H335.863V129.877H356.417V139.713C359.059 136.288 362.436 133.596 366.547 131.639C370.755 129.681 375.355 128.703 380.347 128.703C386.708 128.703 392.385 130.073 397.377 132.813C402.368 135.456 406.234 139.273 408.975 144.265C411.617 139.567 415.434 135.799 420.426 132.96C425.515 130.122 430.996 128.703 436.868 128.703ZM500.122 120.188C496.501 120.188 493.467 119.062 491.02 116.811C488.671 114.462 487.496 111.575 487.496 108.149C487.496 104.724 488.671 101.885 491.02 99.6344C493.467 97.2854 496.501 96.111 500.122 96.111C503.743 96.111 506.728 97.2854 509.077 99.6344C511.524 101.885 512.748 104.724 512.748 108.149C512.748 111.575 511.524 114.462 509.077 116.811C506.728 119.062 503.743 120.188 500.122 120.188ZM510.252 129.877V211.21H489.698V129.877H510.252ZM554.489 146.76V186.105C554.489 188.846 555.125 190.852 556.398 192.125C557.768 193.299 560.019 193.886 563.151 193.886H572.693V211.21H559.774C542.451 211.21 533.789 202.793 533.789 185.959V146.76H524.099V129.877H533.789V109.764H554.489V129.877H572.693V146.76H554.489Z" fill="#FF6725"/>
<path d="M137.332 30.4494L30.278 137.504C13.5559 154.226 13.5559 181.338 30.278 198.06L137.332 305.114C154.054 321.836 181.166 321.836 197.888 305.114L304.942 198.06C321.664 181.338 321.664 154.226 304.942 137.504L197.888 30.4494C181.166 13.7274 154.054 13.7274 137.332 30.4494Z" fill="#1E6CFF"/>
<path d="M432.806 238.198C433.467 237.22 434.372 236.424 435.522 235.813C436.697 235.201 438.03 234.895 439.523 234.895C441.26 234.895 442.826 235.323 444.221 236.18C445.64 237.036 446.753 238.26 447.561 239.85C448.393 241.416 448.809 243.239 448.809 245.319C448.809 247.398 448.393 249.246 447.561 250.861C446.753 252.451 445.64 253.687 444.221 254.568C442.826 255.449 441.26 255.889 439.523 255.889C438.006 255.889 436.672 255.595 435.522 255.008C434.397 254.396 433.491 253.613 432.806 252.659V255.559H427.668V228.399H432.806V238.198ZM443.56 245.319C443.56 244.095 443.303 243.043 442.789 242.162C442.3 241.257 441.639 240.572 440.807 240.107C440 239.642 439.119 239.41 438.165 239.41C437.235 239.41 436.354 239.654 435.522 240.144C434.715 240.608 434.054 241.294 433.54 242.199C433.051 243.104 432.806 244.169 432.806 245.392C432.806 246.615 433.051 247.68 433.54 248.585C434.054 249.49 434.715 250.188 435.522 250.677C436.354 251.142 437.235 251.375 438.165 251.375C439.119 251.375 440 251.13 440.807 250.64C441.639 250.151 442.3 249.454 442.789 248.548C443.303 247.643 443.56 246.567 443.56 245.319ZM471.445 244.952C471.445 245.686 471.396 246.346 471.298 246.934H456.434C456.556 248.402 457.07 249.552 457.975 250.384C458.88 251.215 459.994 251.631 461.315 251.631C463.223 251.631 464.581 250.812 465.389 249.172H470.931C470.344 251.13 469.218 252.745 467.554 254.017C465.891 255.265 463.847 255.889 461.425 255.889C459.468 255.889 457.706 255.461 456.14 254.604C454.598 253.723 453.387 252.488 452.506 250.897C451.65 249.307 451.222 247.472 451.222 245.392C451.222 243.288 451.65 241.44 452.506 239.85C453.363 238.26 454.562 237.036 456.103 236.18C457.645 235.323 459.419 234.895 461.425 234.895C463.358 234.895 465.083 235.311 466.6 236.143C468.142 236.975 469.328 238.162 470.16 239.703C471.017 241.22 471.445 242.97 471.445 244.952ZM466.123 243.484C466.098 242.162 465.621 241.11 464.692 240.327C463.762 239.52 462.624 239.116 461.278 239.116C460.006 239.116 458.929 239.507 458.048 240.29C457.192 241.049 456.666 242.113 456.47 243.484H466.123ZM486.462 234.932C488.885 234.932 490.842 235.703 492.335 237.244C493.827 238.761 494.573 240.89 494.573 243.63V255.559H489.435V244.328C489.435 242.713 489.031 241.477 488.224 240.621C487.416 239.74 486.315 239.299 484.921 239.299C483.502 239.299 482.376 239.74 481.544 240.621C480.737 241.477 480.333 242.713 480.333 244.328V255.559H475.195V235.225H480.333V237.758C481.018 236.877 481.887 236.192 482.939 235.703C484.015 235.189 485.19 234.932 486.462 234.932ZM507.424 234.895C508.941 234.895 510.274 235.201 511.424 235.813C512.574 236.4 513.48 237.171 514.14 238.125V235.225H519.315V255.705C519.315 257.589 518.936 259.266 518.178 260.734C517.419 262.226 516.281 263.401 514.764 264.257C513.247 265.138 511.412 265.578 509.259 265.578C506.372 265.578 503.998 264.905 502.139 263.56C500.304 262.214 499.264 260.379 499.019 258.054H504.121C504.39 258.984 504.965 259.718 505.846 260.257C506.751 260.819 507.84 261.101 509.112 261.101C510.605 261.101 511.816 260.648 512.746 259.743C513.676 258.862 514.14 257.516 514.14 255.705V252.549C513.48 253.503 512.562 254.298 511.388 254.935C510.238 255.571 508.916 255.889 507.424 255.889C505.711 255.889 504.145 255.449 502.726 254.568C501.307 253.687 500.181 252.451 499.349 250.861C498.542 249.246 498.138 247.398 498.138 245.319C498.138 243.263 498.542 241.44 499.349 239.85C500.181 238.26 501.295 237.036 502.689 236.18C504.108 235.323 505.687 234.895 507.424 234.895ZM514.14 245.392C514.14 244.144 513.896 243.08 513.406 242.199C512.917 241.294 512.256 240.608 511.424 240.144C510.593 239.654 509.699 239.41 508.745 239.41C507.791 239.41 506.91 239.642 506.103 240.107C505.295 240.572 504.634 241.257 504.121 242.162C503.631 243.043 503.387 244.095 503.387 245.319C503.387 246.542 503.631 247.619 504.121 248.548C504.634 249.454 505.295 250.151 506.103 250.64C506.935 251.13 507.815 251.375 508.745 251.375C509.699 251.375 510.593 251.142 511.424 250.677C512.256 250.188 512.917 249.503 513.406 248.622C513.896 247.717 514.14 246.64 514.14 245.392ZM523.013 245.319C523.013 243.263 523.417 241.44 524.224 239.85C525.056 238.26 526.17 237.036 527.564 236.18C528.984 235.323 530.562 234.895 532.299 234.895C533.816 234.895 535.137 235.201 536.263 235.813C537.413 236.424 538.33 237.195 539.016 238.125V235.225H544.191V255.559H539.016V252.586C538.355 253.54 537.437 254.335 536.263 254.971C535.113 255.583 533.779 255.889 532.262 255.889C530.549 255.889 528.984 255.449 527.564 254.568C526.17 253.687 525.056 252.451 524.224 250.861C523.417 249.246 523.013 247.398 523.013 245.319ZM539.016 245.392C539.016 244.144 538.771 243.08 538.281 242.199C537.792 241.294 537.131 240.608 536.3 240.144C535.468 239.654 534.575 239.41 533.62 239.41C532.666 239.41 531.785 239.642 530.978 240.107C530.17 240.572 529.51 241.257 528.996 242.162C528.506 243.043 528.262 244.095 528.262 245.319C528.262 246.542 528.506 247.619 528.996 248.548C529.51 249.454 530.17 250.151 530.978 250.64C531.81 251.13 532.69 251.375 533.62 251.375C534.575 251.375 535.468 251.142 536.3 250.677C537.131 250.188 537.792 249.503 538.281 248.622C538.771 247.717 539.016 246.64 539.016 245.392ZM554.348 228.399V255.559H549.21V228.399H554.348ZM578.619 235.225V255.559H573.444V252.989C572.783 253.87 571.915 254.568 570.838 255.081C569.786 255.571 568.636 255.816 567.388 255.816C565.798 255.816 564.391 255.485 563.167 254.825C561.944 254.139 560.977 253.148 560.268 251.852C559.583 250.53 559.24 248.964 559.24 247.154V235.225H564.378V246.42C564.378 248.035 564.782 249.282 565.59 250.163C566.397 251.02 567.498 251.448 568.893 251.448C570.312 251.448 571.425 251.02 572.233 250.163C573.04 249.282 573.444 248.035 573.444 246.42V235.225H578.619ZM588.827 238.382C589.487 237.305 590.344 236.461 591.396 235.849C592.473 235.238 593.696 234.932 595.066 234.932V240.327H593.708C592.093 240.327 590.87 240.706 590.038 241.465C589.231 242.223 588.827 243.545 588.827 245.429V255.559H583.688V235.225H588.827V238.382ZM617.724 235.225V255.559H612.549V252.989C611.888 253.87 611.02 254.568 609.943 255.081C608.891 255.571 607.741 255.816 606.493 255.816C604.903 255.816 603.496 255.485 602.272 254.825C601.049 254.139 600.082 253.148 599.373 251.852C598.688 250.53 598.345 248.964 598.345 247.154V235.225H603.483V246.42C603.483 248.035 603.887 249.282 604.695 250.163C605.502 251.02 606.603 251.448 607.998 251.448C609.417 251.448 610.53 251.02 611.338 250.163C612.145 249.282 612.549 248.035 612.549 246.42V235.225H617.724Z" fill="#1E6CFF"/>
<path d="M74.6523 166.333C74.6523 161.623 75.5776 157.445 77.428 153.801C79.3345 150.156 81.8858 147.353 85.082 145.39C88.3342 143.428 91.951 142.446 95.9321 142.446C99.4086 142.446 102.437 143.147 105.016 144.549C107.651 145.951 109.754 147.717 111.324 149.848V143.203H123.184V189.8H111.324V182.987C109.81 185.174 107.707 186.997 105.016 188.454C102.381 189.857 99.3245 190.557 95.848 190.557C91.9228 190.557 88.3342 189.548 85.082 187.529C81.8858 185.51 79.3345 182.678 77.428 179.034C75.5776 175.333 74.6523 171.1 74.6523 166.333ZM111.324 166.502C111.324 163.642 110.763 161.203 109.642 159.184C108.521 157.109 107.007 155.54 105.1 154.474C103.194 153.353 101.147 152.792 98.9601 152.792C96.7732 152.792 94.7546 153.324 92.9042 154.39C91.0537 155.456 89.5398 157.025 88.3622 159.1C87.2408 161.119 86.68 163.53 86.68 166.333C86.68 169.137 87.2408 171.605 88.3622 173.735C89.5398 175.81 91.0537 177.408 92.9042 178.529C94.8107 179.65 96.8293 180.212 98.9601 180.212C101.147 180.212 103.194 179.679 105.1 178.613C107.007 177.493 108.521 175.922 109.642 173.903C110.763 171.828 111.324 169.361 111.324 166.502ZM131.656 166.502C131.656 161.68 132.638 157.474 134.6 153.885C136.563 150.241 139.282 147.437 142.759 145.474C146.235 143.456 150.217 142.446 154.702 142.446C160.478 142.446 165.245 143.904 169.001 146.82C172.815 149.68 175.365 153.717 176.655 158.932H163.954C163.281 156.913 162.133 155.343 160.505 154.222C158.936 153.044 156.973 152.455 154.618 152.455C151.254 152.455 148.59 153.689 146.628 156.156C144.665 158.568 143.684 162.016 143.684 166.502C143.684 170.932 144.665 174.38 146.628 176.847C148.59 179.259 151.254 180.464 154.618 180.464C159.385 180.464 162.497 178.334 163.954 174.072H176.655C175.365 179.118 172.815 183.128 169.001 186.099C165.188 189.071 160.421 190.557 154.702 190.557C150.217 190.557 146.235 189.575 142.759 187.613C139.282 185.595 136.563 182.791 134.6 179.202C132.638 175.558 131.656 171.323 131.656 166.502ZM243.149 142.53C248.868 142.53 253.467 144.297 256.943 147.829C260.475 151.306 262.242 156.184 262.242 162.464V189.8H250.466V164.062C250.466 160.418 249.541 157.643 247.691 155.736C245.84 153.774 243.317 152.792 240.121 152.792C236.925 152.792 234.374 153.774 232.467 155.736C230.616 157.643 229.691 160.418 229.691 164.062V189.8H217.916V164.062C217.916 160.418 216.991 157.643 215.14 155.736C213.29 153.774 210.766 152.792 207.57 152.792C204.319 152.792 201.739 153.774 199.832 155.736C197.982 157.643 197.057 160.418 197.057 164.062V189.8H185.281V143.203H197.057V148.839C198.57 146.876 200.505 145.334 202.86 144.213C205.272 143.091 207.907 142.53 210.766 142.53C214.412 142.53 217.663 143.315 220.523 144.885C223.383 146.399 225.599 148.586 227.168 151.446C228.682 148.755 230.869 146.596 233.728 144.97C236.645 143.343 239.784 142.53 243.149 142.53Z" fill="white"/>
</g>
<defs>
<clipPath id="clip0_808_2">
<rect width="627" height="336.439" fill="white" transform="translate(0 0.170776)"/>
</clipPath>
</defs>
</svg>
