<svg width="2139" height="411" viewBox="0 0 2139 411" fill="none" xmlns="http://www.w3.org/2000/svg">
<path d="M210.5 149.5V194V207H252H292.75V221H339.75L339.987 111.513C339.994 108.194 337.306 105.5 333.987 105.5H305V62.25C305 58.9363 302.314 56.25 299 56.25H248.5V41C248.5 37.6863 245.814 35 242.5 35H100C96.6863 35 94 37.6863 94 41V95H11C7.68629 95 5 97.6863 5 101V192.5H48.25H65.75H91.25H134V143.5H204.5C207.814 143.5 210.5 146.186 210.5 149.5Z" fill="#279AF1"/>
<path d="M174 282.5V200C174 196.686 176.686 194 180 194H210.5M210.5 194V149.5C210.5 146.186 207.814 143.5 204.5 143.5H134M210.5 194V207M134 143.5V192.5M134 143.5H64M134 192.5V253M134 192.5H91.25M5 192.5V101C5 97.6863 7.68629 95 11 95H94M5 192.5V253M5 192.5H48.25M122 115.5V101C122 97.6863 119.314 95 116 95H94M94 95V41C94 37.6863 96.6863 35 100 35H242.5C245.814 35 248.5 37.6863 248.5 41V56.25M248.5 76.5V56.25M248.5 56.25H299C302.314 56.25 305 58.9363 305 62.25V105.5M274 105.5H333.987C337.306 105.5 339.994 108.194 339.987 111.513L339.75 221M339.75 221H292.75M339.75 221V253M292.75 221V207M292.75 221V253M292.75 207L292.53 163.47C292.513 160.168 289.832 157.5 286.53 157.5H252M292.75 207H252M210.5 207V253M210.5 207H252M64 122.5V163.5M156.5 68.5V80.5C156.5 83.8137 159.186 86.5 162.5 86.5H204.5C207.814 86.5 210.5 83.8137 210.5 80.5V68.5M252 207V253M48.25 192.5H65.75H91.25M48.25 192.5V253M91.25 192.5V253M347 305.5H288C284.686 305.5 282 302.814 282 299.5V288.5C282 285.186 279.314 282.5 276 282.5H92.5C89.1863 282.5 86.5 285.186 86.5 288.5V299.5C86.5 302.814 83.8137 305.5 80.5 305.5H5" stroke="#0031B0" stroke-width="10"/>
<circle cx="64" cy="122.25" r="5" fill="#0031B0"/>
<circle cx="64" cy="122.25" r="5" fill="#0031B0"/>
<circle cx="64" cy="163.5" r="5" fill="#0031B0"/>
<circle cx="64" cy="163.5" r="5" fill="#0031B0"/>
<circle cx="122" cy="115.5" r="5" fill="#0031B0"/>
<circle cx="122" cy="115.5" r="5" fill="#0031B0"/>
<circle cx="156.5" cy="68.25" r="5" fill="#0031B0"/>
<circle cx="156.5" cy="68.25" r="5" fill="#0031B0"/>
<circle cx="210.5" cy="68" r="5" fill="#0031B0"/>
<circle cx="210.5" cy="68" r="5" fill="#0031B0"/>
<circle cx="248.5" cy="76.5" r="5" fill="#0031B0"/>
<circle cx="248.5" cy="76.5" r="5" fill="#0031B0"/>
<circle cx="273.75" cy="105.5" r="5" fill="#0031B0"/>
<circle cx="273.75" cy="105.5" r="5" fill="#0031B0"/>
<circle cx="251.75" cy="157.5" r="5" fill="#0031B0"/>
<circle cx="251.75" cy="157.5" r="5" fill="#0031B0"/>
<circle cx="5" cy="253.25" r="5" fill="#0031B0"/>
<circle cx="5" cy="253.25" r="5" fill="#0031B0"/>
<circle cx="48.25" cy="253" r="5" fill="#0031B0"/>
<circle cx="48.25" cy="253" r="5" fill="#0031B0"/>
<circle cx="91.25" cy="253" r="5" fill="#0031B0"/>
<circle cx="91.25" cy="253" r="5" fill="#0031B0"/>
<circle cx="134" cy="253" r="5" fill="#0031B0"/>
<circle cx="134" cy="253" r="5" fill="#0031B0"/>
<circle cx="210.5" cy="253.25" r="5" fill="#0031B0"/>
<circle cx="210.5" cy="253.25" r="5" fill="#0031B0"/>
<circle cx="252" cy="253" r="5" fill="#0031B0"/>
<circle cx="252" cy="253" r="5" fill="#0031B0"/>
<circle cx="292.75" cy="253" r="5" fill="#0031B0"/>
<circle cx="292.75" cy="253" r="5" fill="#0031B0"/>
<circle cx="339.75" cy="253" r="5" fill="#0031B0"/>
<circle cx="339.75" cy="253" r="5" fill="#0031B0"/>
<circle cx="347" cy="305.5" r="5" fill="#0031B0"/>
<circle cx="347" cy="305.5" r="5" fill="#0031B0"/>
<circle cx="5" cy="305.5" r="5" fill="#0031B0"/>
<circle cx="5" cy="305.5" r="5" fill="#0031B0"/>
<path d="M378.75 223.5C378.75 206.333 382.583 191 390.25 177.5C398.083 163.833 408.667 153.25 422 145.75C435.5 138.083 450.583 134.25 467.25 134.25C486.75 134.25 503.833 139.25 518.5 149.25C533.167 159.25 543.417 173.083 549.25 190.75H509C505 182.417 499.333 176.167 492 172C484.833 167.833 476.5 165.75 467 165.75C456.833 165.75 447.75 168.167 439.75 173C431.917 177.667 425.75 184.333 421.25 193C416.917 201.667 414.75 211.833 414.75 223.5C414.75 235 416.917 245.167 421.25 254C425.75 262.667 431.917 269.417 439.75 274.25C447.75 278.917 456.833 281.25 467 281.25C476.5 281.25 484.833 279.167 492 275C499.333 270.667 505 264.333 509 256H549.25C543.417 273.833 533.167 287.75 518.5 297.75C504 307.583 486.917 312.5 467.25 312.5C450.583 312.5 435.5 308.75 422 301.25C408.667 293.583 398.083 283 390.25 269.5C382.583 256 378.75 240.667 378.75 223.5ZM660.145 312.75C643.811 312.75 628.811 308.917 615.145 301.25C601.478 293.583 590.645 283 582.645 269.5C574.645 255.833 570.645 240.417 570.645 223.25C570.645 206.25 574.645 191 582.645 177.5C590.645 163.833 601.478 153.167 615.145 145.5C628.811 137.833 643.811 134 660.145 134C676.645 134 691.645 137.833 705.145 145.5C718.811 153.167 729.561 163.833 737.395 177.5C745.395 191 749.395 206.25 749.395 223.25C749.395 240.417 745.395 255.833 737.395 269.5C729.561 283 718.811 293.583 705.145 301.25C691.478 308.917 676.478 312.75 660.145 312.75ZM660.145 281.5C670.645 281.5 679.895 279.167 687.895 274.5C695.895 269.667 702.145 262.833 706.645 254C711.145 245.167 713.395 234.917 713.395 223.25C713.395 211.583 711.145 201.417 706.645 192.75C702.145 183.917 695.895 177.167 687.895 172.5C679.895 167.833 670.645 165.5 660.145 165.5C649.645 165.5 640.311 167.833 632.145 172.5C624.145 177.167 617.895 183.917 613.395 192.75C608.895 201.417 606.645 211.583 606.645 223.25C606.645 234.917 608.895 245.167 613.395 254C617.895 262.833 624.145 269.667 632.145 274.5C640.311 279.167 649.645 281.5 660.145 281.5ZM836.434 136.5C854.767 136.5 870.85 140.083 884.684 147.25C898.684 154.417 909.434 164.667 916.934 178C924.6 191.167 928.434 206.5 928.434 224C928.434 241.5 924.6 256.833 916.934 270C909.434 283 898.684 293.083 884.684 300.25C870.85 307.417 854.767 311 836.434 311H775.434V136.5H836.434ZM835.184 281.25C853.517 281.25 867.684 276.25 877.684 266.25C887.684 256.25 892.684 242.167 892.684 224C892.684 205.833 887.684 191.667 877.684 181.5C867.684 171.167 853.517 166 835.184 166H810.434V281.25H835.184ZM989.633 164.75V208.5H1048.38V236.25H989.633V282.5H1055.88V311H954.633V136.25H1055.88V164.75H989.633ZM1194.19 207V236.5H1088.19V207H1194.19ZM1340.44 277.75H1270.94L1259.44 311H1222.69L1285.44 136.25H1326.19L1388.94 311H1351.94L1340.44 277.75ZM1330.94 249.75L1305.69 176.75L1280.44 249.75H1330.94ZM1447.4 136.5V311H1412.4V136.5H1447.4ZM1548.55 271.5C1564.55 258.167 1577.3 247.083 1586.8 238.25C1596.3 229.25 1604.21 219.917 1610.55 210.25C1616.88 200.583 1620.05 191.083 1620.05 181.75C1620.05 173.25 1618.05 166.583 1614.05 161.75C1610.05 156.917 1603.88 154.5 1595.55 154.5C1587.21 154.5 1580.8 157.333 1576.3 163C1571.8 168.5 1569.46 176.083 1569.3 185.75H1535.3C1535.96 165.75 1541.88 150.583 1553.05 140.25C1564.38 129.917 1578.71 124.75 1596.05 124.75C1615.05 124.75 1629.63 129.833 1639.8 140C1649.96 150 1655.05 163.25 1655.05 179.75C1655.05 192.75 1651.55 205.167 1644.55 217C1637.55 228.833 1629.55 239.167 1620.55 248C1611.55 256.667 1599.8 267.167 1585.3 279.5H1659.05V308.5H1535.55V282.5L1548.55 271.5ZM1681.1 217.5C1681.1 188.667 1686.27 166.083 1696.6 149.75C1707.1 133.417 1724.43 125.25 1748.6 125.25C1772.77 125.25 1790.02 133.417 1800.35 149.75C1810.85 166.083 1816.1 188.667 1816.1 217.5C1816.1 246.5 1810.85 269.25 1800.35 285.75C1790.02 302.25 1772.77 310.5 1748.6 310.5C1724.43 310.5 1707.1 302.25 1696.6 285.75C1686.27 269.25 1681.1 246.5 1681.1 217.5ZM1781.6 217.5C1781.6 205.167 1780.77 194.833 1779.1 186.5C1777.6 178 1774.43 171.083 1769.6 165.75C1764.93 160.417 1757.93 157.75 1748.6 157.75C1739.27 157.75 1732.18 160.417 1727.35 165.75C1722.68 171.083 1719.52 178 1717.85 186.5C1716.35 194.833 1715.6 205.167 1715.6 217.5C1715.6 230.167 1716.35 240.833 1717.85 249.5C1719.35 258 1722.52 264.917 1727.35 270.25C1732.18 275.417 1739.27 278 1748.6 278C1757.93 278 1765.02 275.417 1769.85 270.25C1774.68 264.917 1777.85 258 1779.35 249.5C1780.85 240.833 1781.6 230.167 1781.6 217.5ZM1853.72 271.5C1869.72 258.167 1882.47 247.083 1891.97 238.25C1901.47 229.25 1909.39 219.917 1915.72 210.25C1922.06 200.583 1925.22 191.083 1925.22 181.75C1925.22 173.25 1923.22 166.583 1919.22 161.75C1915.22 156.917 1909.06 154.5 1900.72 154.5C1892.39 154.5 1885.97 157.333 1881.47 163C1876.97 168.5 1874.64 176.083 1874.47 185.75H1840.47C1841.14 165.75 1847.06 150.583 1858.22 140.25C1869.56 129.917 1883.89 124.75 1901.22 124.75C1920.22 124.75 1934.81 129.833 1944.97 140C1955.14 150 1960.22 163.25 1960.22 179.75C1960.22 192.75 1956.72 205.167 1949.72 217C1942.72 228.833 1934.72 239.167 1925.72 248C1916.72 256.667 1904.97 267.167 1890.47 279.5H1964.22V308.5H1840.72V282.5L1853.72 271.5ZM1984.78 275.5V248L2066.53 131H2107.28V245H2129.28V275.5H2107.28V311H2072.28V275.5H1984.78ZM2074.53 168.5L2023.28 245H2074.53V168.5Z" fill="#0031B0"/>
<path d="M422.912 71.728C426.496 72.368 429.536 74.256 432.032 77.392C434.528 80.528 435.776 84.08 435.776 88.048C435.776 91.44 434.88 94.512 433.088 97.264C431.36 99.952 428.832 102.096 425.504 103.696C422.176 105.232 418.304 106 413.888 106H387.2V39.28H412.64C417.184 39.28 421.088 40.048 424.352 41.584C427.616 43.12 430.08 45.2 431.744 47.824C433.408 50.384 434.24 53.264 434.24 56.464C434.24 60.304 433.216 63.504 431.168 66.064C429.12 68.624 426.368 70.512 422.912 71.728ZM398.144 67.312H411.68C415.264 67.312 418.048 66.512 420.032 64.912C422.08 63.248 423.104 60.88 423.104 57.808C423.104 54.8 422.08 52.464 420.032 50.8C418.048 49.072 415.264 48.208 411.68 48.208H398.144V67.312ZM412.928 97.072C416.64 97.072 419.552 96.176 421.664 94.384C423.776 92.592 424.832 90.096 424.832 86.896C424.832 83.632 423.712 81.04 421.472 79.12C419.232 77.2 416.256 76.24 412.544 76.24H398.144V97.072H412.928ZM458.613 48.112V67.696H481.653V76.624H458.613V97.072H484.533V106H447.669V39.184H484.533V48.112H458.613ZM552.829 106H541.885L508.957 56.176V106H498.013V39.184H508.957L541.885 88.912V39.184H552.829V106ZM615.488 58.48C613.76 55.152 611.36 52.656 608.288 50.992C605.216 49.264 601.664 48.4 597.632 48.4C593.216 48.4 589.28 49.392 585.824 51.376C582.368 53.36 579.648 56.176 577.664 59.824C575.744 63.472 574.784 67.696 574.784 72.496C574.784 77.296 575.744 81.552 577.664 85.264C579.648 88.912 582.368 91.728 585.824 93.712C589.28 95.696 593.216 96.688 597.632 96.688C603.584 96.688 608.416 95.024 612.128 91.696C615.84 88.368 618.112 83.856 618.944 78.16H593.888V69.424H630.656V77.968C629.952 83.152 628.096 87.92 625.088 92.272C622.144 96.624 618.272 100.112 613.472 102.736C608.736 105.296 603.456 106.576 597.632 106.576C591.36 106.576 585.632 105.136 580.448 102.256C575.264 99.312 571.136 95.248 568.064 90.064C565.056 84.88 563.552 79.024 563.552 72.496C563.552 65.968 565.056 60.112 568.064 54.928C571.136 49.744 575.264 45.712 580.448 42.832C585.696 39.888 591.424 38.416 597.632 38.416C604.736 38.416 611.04 40.176 616.544 43.696C622.112 47.152 626.144 52.08 628.64 58.48H615.488ZM681.674 92.368H653.738L648.938 106H637.514L661.418 39.184H674.09L697.994 106H686.474L681.674 92.368ZM678.602 83.44L667.754 52.432L656.81 83.44H678.602ZM719.332 97.168H741.892V106H708.388V39.28H719.332V97.168ZM761.892 39.28V81.808C761.892 86.864 763.204 90.672 765.828 93.232C768.516 95.792 772.228 97.072 776.964 97.072C781.764 97.072 785.476 95.792 788.1 93.232C790.788 90.672 792.132 86.864 792.132 81.808V39.28H803.076V81.616C803.076 87.056 801.892 91.664 799.524 95.44C797.156 99.216 793.988 102.032 790.02 103.888C786.052 105.744 781.668 106.672 776.868 106.672C772.068 106.672 767.684 105.744 763.716 103.888C759.812 102.032 756.708 99.216 754.404 95.44C752.1 91.664 750.948 87.056 750.948 81.616V39.28H761.892ZM851.981 106L836.621 79.312H828.269V106H817.325V39.28H840.365C845.485 39.28 849.805 40.176 853.325 41.968C856.909 43.76 859.565 46.16 861.293 49.168C863.085 52.176 863.981 55.536 863.981 59.248C863.981 63.6 862.701 67.568 860.141 71.152C857.645 74.672 853.773 77.072 848.525 78.352L865.037 106H851.981ZM828.269 70.576H840.365C844.461 70.576 847.533 69.552 849.581 67.504C851.693 65.456 852.749 62.704 852.749 59.248C852.749 55.792 851.725 53.104 849.677 51.184C847.629 49.2 844.525 48.208 840.365 48.208H828.269V70.576ZM888.829 39.28V81.808C888.829 86.864 890.141 90.672 892.765 93.232C895.453 95.792 899.165 97.072 903.901 97.072C908.701 97.072 912.413 95.792 915.037 93.232C917.725 90.672 919.069 86.864 919.069 81.808V39.28H930.013V81.616C930.013 87.056 928.829 91.664 926.461 95.44C924.093 99.216 920.925 102.032 916.957 103.888C912.989 105.744 908.605 106.672 903.805 106.672C899.005 106.672 894.621 105.744 890.653 103.888C886.749 102.032 883.645 99.216 881.341 95.44C879.037 91.664 877.885 87.056 877.885 81.616V39.28H888.829ZM956.263 92.848L944.647 119.344H937.543L944.359 92.848H956.263ZM1001.71 39.28V106H990.763V39.28H1001.71ZM1070.89 106H1059.95L1027.02 56.176V106H1016.08V39.184H1027.02L1059.95 88.912V39.184H1070.89V106ZM1107.05 39.28C1114.16 39.28 1120.37 40.656 1125.68 43.408C1131.05 46.096 1135.18 50 1138.06 55.12C1141.01 60.176 1142.48 66.096 1142.48 72.88C1142.48 79.664 1141.01 85.552 1138.06 90.544C1135.18 95.536 1131.05 99.376 1125.68 102.064C1120.37 104.688 1114.16 106 1107.05 106H1085.26V39.28H1107.05ZM1107.05 97.072C1114.86 97.072 1120.85 94.96 1125.01 90.736C1129.17 86.512 1131.25 80.56 1131.25 72.88C1131.25 65.136 1129.17 59.088 1125.01 54.736C1120.85 50.384 1114.86 48.208 1107.05 48.208H1096.21V97.072H1107.05ZM1164.27 39.28V106H1153.33V39.28H1164.27ZM1218.86 92.368H1190.93L1186.13 106H1174.7L1198.61 39.184H1211.28L1235.18 106H1223.66L1218.86 92.368ZM1215.79 83.44L1204.94 52.432L1194 83.44H1215.79Z" fill="#279AF1"/>
</svg>
